<svg width="783" height="1024" viewBox="0 0 783 1024" fill="none" xmlns="http://www.w3.org/2000/svg">
<g clip-path="url(#clip0_11_36)">
<path d="M598.639 376.834L612.491 381.873C614.455 382.588 616.099 383.954 617.091 385.695C618.083 387.436 618.349 389.423 617.835 391.253C617.32 393.083 616.065 394.621 614.321 395.555C612.578 396.49 610.476 396.751 608.442 396.287L607.374 395.973L593.517 390.932C591.718 390.277 589.768 390.211 588.001 390.745L586.981 391.135L557.828 404.542L593.656 417.58C599.385 419.664 604.213 423.597 607.215 428.625C610.217 433.653 611.181 439.423 609.923 444.827L630.882 452.451C633.39 447.5 637.837 443.699 643.369 441.775C648.901 439.851 655.129 439.94 660.859 442.025L696.803 455.095L682.988 426.047C682.207 424.405 680.854 423.031 679.158 422.159L678.107 421.702L664.193 416.641C662.23 415.925 660.587 414.558 659.596 412.817C658.605 411.076 658.34 409.09 658.855 407.26C659.37 405.43 660.626 403.893 662.369 402.959C664.112 402.025 666.213 401.764 668.247 402.229L669.326 402.546L683.235 407.606C689.057 409.724 693.945 413.75 696.934 418.889L697.852 420.627L722.007 471.419C722.337 472.119 722.556 472.837 722.661 473.546C724.51 478.31 724.739 483.57 722.929 488.546L710.976 521.405C708.029 529.505 701.664 535.986 693.28 539.422C684.896 542.858 675.18 542.967 666.27 539.726L640.437 530.329C631.526 527.088 624.152 520.762 619.935 512.742C615.718 504.722 615.004 495.666 617.95 487.566L625.604 466.493L604.919 458.969L597.265 480.042C594.319 488.142 587.953 494.623 579.569 498.059C571.185 501.495 561.469 501.604 552.559 498.363L526.726 488.966C517.816 485.725 510.441 479.399 506.224 471.379C502.007 463.359 501.293 454.303 504.24 446.203L516.191 413.349C518.11 408.072 521.995 404.021 526.858 401.592L527.439 401.218L528.068 400.889L579.021 377.444C584.392 374.973 590.691 374.53 596.668 376.202L598.637 376.838L612.489 381.877L598.637 376.838L598.639 376.834ZM588.521 431.679L542.013 414.762C539.957 414.014 537.715 414.039 535.78 414.832C533.845 415.625 532.377 417.12 531.697 418.99L519.746 451.843C518.96 454.003 518.65 456.312 518.833 458.638C519.017 460.964 519.69 463.262 520.814 465.4C521.939 467.538 523.492 469.475 525.386 471.1C527.28 472.724 529.478 474.005 531.854 474.87L557.687 484.267C562.485 486.012 567.716 485.953 572.231 484.103C576.745 482.253 580.173 478.763 581.759 474.401L593.71 441.547C594.39 439.678 594.225 437.588 593.252 435.738C592.279 433.887 590.577 432.427 588.521 431.679V431.679ZM702.232 473.042L655.724 456.125C653.668 455.377 651.426 455.402 649.491 456.195C647.556 456.988 646.087 458.483 645.407 460.353L633.456 493.206C632.671 495.366 632.361 497.675 632.544 500.001C632.727 502.327 633.4 504.625 634.525 506.763C635.649 508.901 637.203 510.838 639.097 512.463C640.991 514.087 643.189 515.369 645.564 516.233L671.397 525.63C676.195 527.375 681.427 527.316 685.941 525.466C690.456 523.616 693.883 520.126 695.47 515.764L707.421 482.91C708.101 481.041 707.936 478.951 706.963 477.101C705.99 475.25 704.288 473.79 702.232 473.042V473.042Z" fill="#D5E522" fill-opacity="0.13"/>
</g>
<path d="M578.073 79.1688C572.216 81.431 566.402 81.2972 560.632 78.7673C554.861 76.2375 550.853 72.0652 548.607 66.2504C546.362 60.4357 546.525 54.6524 549.097 48.9006C551.669 43.1489 555.884 39.1419 561.741 36.8797C567.599 34.6175 573.413 34.7513 579.183 37.2811C584.954 39.811 588.962 43.9833 591.207 49.798C593.453 55.6128 593.29 61.396 590.718 67.1478C588.146 72.8996 583.931 76.9066 578.073 79.1688ZM655.502 114.871L637.086 106.797C635.63 108.574 633.974 110.226 632.116 111.754C630.258 113.281 628.131 114.508 625.735 115.433C619.079 118.004 612.527 117.877 606.08 115.054C599.636 112.226 595.137 107.508 592.585 100.9C590.033 94.2922 590.193 87.7754 593.063 81.3494C595.939 74.9257 600.705 70.4284 607.361 67.8578C614.017 65.2871 620.569 65.4135 627.016 68.2369C633.46 71.0652 637.959 75.7832 640.51 82.3909C641.429 84.7697 641.942 87.1534 642.048 89.542C642.155 91.9307 642.033 94.2558 641.683 96.5172L660.099 104.591C661.45 105.183 662.414 106.228 662.992 107.726C663.571 109.224 663.559 110.646 662.957 111.992C662.355 113.338 661.3 114.302 659.791 114.885C658.282 115.468 656.853 115.463 655.502 114.871V114.871ZM621.652 104.861C625.379 103.421 628.037 100.927 629.624 97.3779C631.211 93.8289 631.29 90.2043 629.86 86.504C628.431 82.8037 625.937 80.1731 622.376 78.6121C618.816 77.0511 615.172 76.9904 611.444 78.43C607.717 79.8696 605.059 82.3639 603.472 85.9129C601.885 89.4618 601.806 93.0864 603.235 96.7867C604.664 100.487 607.159 103.118 610.72 104.679C614.28 106.24 617.924 106.3 621.652 104.861ZM562.456 133.797C559.527 134.928 556.619 134.863 553.733 133.6C550.849 132.333 548.846 130.245 547.723 127.338L546.14 123.241C544.984 120.246 544.666 117.179 545.188 114.042C545.71 110.904 547.047 108.16 549.199 105.81C552.841 101.772 557.196 97.8625 562.263 94.083C567.331 90.3035 573.326 87.077 580.248 84.4035C579.528 87.8202 579.305 91.2717 579.578 94.7582C579.857 98.2468 580.642 101.665 581.935 105.013C583.194 108.273 584.892 111.286 587.03 114.053C589.172 116.821 591.675 119.273 594.539 121.406L562.456 133.797Z" fill="#FBF8E4"/>
<rect x="24" y="22" width="748" height="980" rx="15" fill="url(#paint0_linear_11_36)"/>
<g clip-path="url(#clip1_11_36)">
<path d="M134.995 725.631C128.259 723.474 120.943 724.081 114.655 727.318C108.366 730.555 103.622 736.157 101.464 742.893L85.1954 793.684C83.0381 800.419 78.2934 806.022 72.0053 809.259C65.7172 812.496 58.4007 813.103 51.6653 810.945L38.9674 806.878L30.833 832.274L43.5308 836.341C50.2662 838.498 55.8687 843.243 59.1058 849.531C62.3429 855.819 62.9495 863.136 60.7921 869.871L44.5232 920.663C42.3658 927.398 42.9724 934.714 46.2095 941.003C49.4466 947.291 55.0491 952.035 61.7844 954.193L87.1801 962.327L95.3146 936.931L69.9189 928.797L90.255 865.308C92.4124 858.572 91.8058 851.256 88.5687 844.968C85.3316 838.68 79.7291 833.935 72.9938 831.778C79.7291 833.935 87.0456 833.328 93.3338 830.091C99.6219 826.854 104.367 821.252 106.524 814.516L126.86 751.027L152.256 759.162L160.39 733.766M236.577 758.169C243.313 760.327 248.915 765.071 252.152 771.359C255.389 777.647 255.996 784.964 253.839 791.699L237.57 842.491C235.412 849.226 236.019 856.543 239.256 862.831C242.493 869.119 248.096 873.863 254.831 876.021L267.529 880.088L259.394 905.484L246.696 901.417C239.961 899.259 232.645 899.866 226.356 903.103C220.068 906.34 215.324 911.942 213.166 918.678L196.897 969.469C194.74 976.205 189.995 981.807 183.707 985.044C177.419 988.281 170.103 988.888 163.367 986.73L137.972 978.596L146.106 953.2L171.502 961.335L191.838 897.846C193.995 891.11 198.74 885.508 205.028 882.271C211.316 879.033 218.633 878.427 225.368 880.584C218.633 878.427 213.03 873.682 209.793 867.394C206.556 861.106 205.949 853.789 208.107 847.054L228.443 783.565L203.047 775.43L211.182 750.035L236.577 758.169Z" fill="#E5C622" fill-opacity="0.12"/>
</g>
<path d="M220.7 197L174.9 151.1L189 137L249 197L213.1 232.9L199 218.7L220.7 197ZM42.9 119.2L84.8 161.1L49 197L109 257L123.1 242.9L77.3 197L99 175.3L226.8 303.1L240.9 289L57.1 105.1L42.9 119.2Z" fill="#E2E85B"/>
<g clip-path="url(#clip2_11_36)">
<path d="M660.086 815.536L658.077 819.185L663.513 822.171L665.518 818.523L660.084 815.536L660.086 815.536ZM697.031 804.8L694.042 810.234L697.692 812.239L700.68 806.807L697.029 804.801L697.031 804.8ZM678.922 811.423C678.261 811.624 677.601 811.857 676.949 812.136C676.929 812.142 676.908 812.143 676.889 812.153C669.005 815.458 664.43 823.933 665.661 832.379C666.659 839.175 671.075 844.318 676.674 846.829C678.966 847.863 680.833 849.652 681.963 851.899L685.468 863.962L690.052 862.63C691.101 863.627 692.613 864.066 694.095 863.636C695.577 863.205 696.618 862.024 696.969 860.62L701.553 859.288L699.216 851.246L699.405 851.191L698.711 848.802C697.854 845.855 698.523 842.438 700.34 839.404C702.701 835.103 703.839 829.638 702.258 824.199C699.372 814.267 688.815 808.448 678.922 811.423V811.423ZM680.091 815.444C687.83 813.077 695.982 817.607 698.237 825.368C699.46 829.578 698.588 833.852 696.671 837.335L696.754 837.381C694.79 840.635 694.024 844.473 694.588 848.232L685.793 850.788C684.35 847.47 681.903 844.564 678.415 842.983C673.986 840.999 670.548 837.071 669.765 831.734C668.803 825.145 672.462 818.559 678.556 816.032C679.055 815.808 679.566 815.613 680.087 815.447L680.091 815.444ZM656.015 837.637L657.183 841.659L663.215 839.906L662.047 835.885L656.015 837.637ZM706.279 823.031L707.448 827.052L713.48 825.299L712.311 821.278L706.279 823.031ZM671.802 850.698L668.815 856.129L672.466 858.136L675.448 852.704L671.802 850.698ZM705.982 840.765L703.976 844.413L709.408 847.401L711.415 843.75L705.982 840.765ZM687.153 854.753L695.195 852.416L696.364 856.437L688.321 858.774L687.153 854.753Z" fill="#D5E522" fill-opacity="0.33"/>
</g>
<defs>
<linearGradient id="paint0_linear_11_36" x1="24" y1="469.5" x2="772" y2="469.5" gradientUnits="userSpaceOnUse">
<stop stop-color="#D5E522"/>
<stop offset="1" stop-color="#D5E522" stop-opacity="0"/>
</linearGradient>
<clipPath id="clip0_11_36">
<rect width="264" height="240" fill="white" transform="translate(533.973 300.106) rotate(19.9892)"/>
</clipPath>
<clipPath id="clip1_11_36">
<rect width="320" height="320" fill="white" transform="translate(45.6134 655) rotate(17.7607)"/>
</clipPath>
<clipPath id="clip2_11_36">
<rect width="67" height="67" fill="white" transform="translate(644.983 814.679) rotate(-16.2035)"/>
</clipPath>
</defs>
</svg>
